<?xml version="1.0" encoding="UTF-8" standalone="no"?>
<svg
   xmlns:dc="http://purl.org/dc/elements/1.1/"
   xmlns:cc="http://creativecommons.org/ns#"
   xmlns:rdf="http://www.w3.org/1999/02/22-rdf-syntax-ns#"
   xmlns:svg="http://www.w3.org/2000/svg"
   xmlns="http://www.w3.org/2000/svg"
   width="193.64104"
   height="150.00002"
   viewBox="0 0 193.64104 150.00002"
   id="metroLogoSVG"
   version="1.1"
   class="shadow"
>
  <defs
     id="def1" />
  <g
     id="g4286">
    <path
       id="sun"
       d="m 1.2821886,147.59468 c -6.2272287,-9.54794 11.9500404,-12.50908 17.6499864,-16.98135 6.000449,-2.06684 21.235087,-14.0494 21.050039,-1.07981 -4.168245,8.29858 -14.91645,7.92545 -21.860763,12.74079 -5.221351,0.88813 -12.4814174,11.68959 -16.8392624,5.32037 z m 165.2307814,0.0606 c -8.77189,-4.9209 -17.26507,-10.75753 -24.21736,-18.05489 -3.89314,-10.30923 10.54558,-4.3716 13.84499,0.0653 6.93388,5.78256 17.94321,7.52987 22.05111,16.20879 -0.0655,6.77586 -8.17848,3.57515 -11.67874,1.78079 z M 64.53061,137.0734 C 53.477883,132.72373 47.676474,121.21742 42.666545,111.1626 36.225986,96.705817 32.528346,79.188827 40.276979,64.465857 46.648427,50.292065 62.868742,45.313209 76.358619,40.551448 c 9.9321,-1.937353 20.264356,-1.423657 30.313821,-0.784992 10.70471,-0.08109 10.42526,17.398212 -0.25584,16.436234 -8.257811,0.930902 -17.508408,-1.621399 -25.04603,2.431561 -5.356686,5.271677 -4.698066,15.143316 -5.155892,22.574746 0.372466,13.21894 9.296121,25.178173 6.441624,38.693543 7.415621,0.56386 13.934045,-3.94157 21.267148,-4.47531 13.39051,-2.35739 24.04385,-11.41198 32.7285,-21.342743 3.12337,-1.80946 2.46929,-4.99225 2.16434,-8.04812 -0.18663,-8.03908 -1.17435,-17.633452 -9.25432,-21.703748 -9.75615,-5.581081 -0.0317,-19.993076 9.15565,-14.036441 13.96112,5.965961 17.04838,22.895369 16.82406,36.462279 0.9263,11.1852 -6.65062,20.200303 -14.49199,27.120923 -11.11365,11.80735 -26.98294,17.09449 -42.433926,20.29199 -9.02868,2.77568 -18.644926,3.60029 -28.041099,4.41982 -2.076697,-0.18936 -4.0827,-0.84427 -6.044055,-1.51779 z M 74.861406,119.751 c 8.661093,-16.37621 10.347955,-37.302033 1.891853,-54.082861 -4.57911,-10.421403 -13.885585,-0.609217 -18.914671,4.056973 -2.615136,2.869115 -4.448159,6.733165 -5.570512,10.326215 1.944286,14.54246 5.432419,30.313363 17.023143,40.292403 0.948263,1.37533 9.187286,3.35048 5.570187,-0.59273 z m 90.149944,-8.68139 c -5.71302,0.0668 -12.51536,-8.45679 -3.18119,-8.7763 6.17177,-1.71557 22.27646,6.66861 11.39856,11.08101 -2.82954,-0.38107 -5.51384,-1.43818 -8.21737,-2.30471 z M 16.606569,108.71664 c -6.288467,-7.47411 14.297322,-12.067523 14.862805,-3.93481 -0.454684,5.57191 -11.446083,6.96288 -14.862805,3.93481 z M 13.441481,82.839227 c -5.8410957,0.54123 -16.3072494,-3.36364 -7.8329602,-9.20752 7.8041032,0.031 17.1774182,0.41608 23.8862692,4.70013 2.210539,8.39783 -11.899365,4.81116 -16.053309,4.50739 z m 149.630229,-0.68633 c -3.29027,-10.25106 14.58022,-7.26009 21.00521,-9.70421 5.25091,-2.24515 15.12205,6.17529 5.54675,6.78726 -8.18443,2.11584 -16.73521,4.10826 -25.19246,3.81881 l -1.3595,-0.90186 0,0 z M 29.644461,54.217084 C 23.968708,49.293197 19.824564,42.570316 14.198463,37.378543 9.8295294,31.337049 1.810153,25.635761 1.6871609,17.972843 9.8401477,11.621652 14.307019,26.591207 19.931007,30.742557 c 6.333908,7.041088 13.171088,13.725627 18.675907,21.447977 -0.138766,5.187726 -6.114202,4.509017 -8.962453,2.02655 z M 149.28101,48.439329 c -1.76411,-8.323958 10.07129,-11.352688 15.07023,-16.367551 7.81112,-5.701605 15.09214,-12.312247 23.72256,-16.773445 10.36435,3.018895 -3.74634,12.379613 -8.12202,15.666626 -9.18113,6.549933 -17.90034,14.088941 -28.05012,19.069466 l -1.30476,-0.468563 -1.31589,-1.126533 0,0 z M 63.93631,33.811899 C 59.954837,27.750976 57.478728,19.792576 59.514388,12.63924 c 9.676146,-2.7318638 7.630057,12.602882 11.13148,18.499643 1.323799,4.858599 -4.254338,7.288908 -6.709558,2.673016 z m 39.44131,-1.038603 c -0.74995,-8.541488 3.37774,-17.713332 4.44048,-26.5185328 -0.11499,-7.654968 11.14849,-8.948859 8.6219,-0.134072 -2.595,8.9141538 -2.46145,18.6751588 -7.02571,26.9681078 -1.51287,1.914829 -4.63109,1.47982 -6.03667,-0.315503 z"
       style="fill:#f5e611" />
    <path
       id="city"
       d="m 76.615967,84.574037 c 4.650531,-6.53545 15.739213,-9.41746 20.745232,-1.66092 7.644481,7.80913 -4.856455,16.6815 -12.625181,15.09891 -9.256019,1.04732 -9.662522,-6.62742 -8.120051,-13.43799 z"
       style="fill:#c33e0e" />
    <path
       id="land"
       d="m 75.971596,118.43891 c 2.092439,-9.46306 -14.616785,-7.61424 -12.762406,-18.03463 2.364053,-11.343413 5.742516,-23.035133 13.232412,-32.092715 6.752513,-4.420212 16.537844,-4.997218 23.810338,-1.535063 2.19355,5.162465 3.90027,14.167025 11.48614,8.127305 3.96929,-2.03144 7.8778,-4.17903 11.81679,-6.268321 6.84414,4.047381 12.87339,13.013571 8.39543,20.762331 -8.68424,2.23281 -15.28134,8.2189 -23.70976,12.263353 -6.00103,4.12186 -16.567198,-7.816823 -16.251285,4.29737 -1.724763,5.77404 -10.290751,15.27366 -16.017676,12.48037 l 1.7e-5,0 z M 94.819944,93.577037 c 6.639336,-9.58232 -8.092647,-18.94838 -12.610289,-7.15527 -1.770371,6.99093 7.39962,11.89678 12.610289,7.15527 z"
       style="fill:#1eab34" />
    <path
       id="river"
       d="m 75.971596,118.43891 c -2.012219,-8.784 11.807018,-10.84262 9.72378,-19.911843 -1.690566,-5.24581 5.055499,-3.22071 7.95961,-2.65857 0.766171,6.669143 -2.622103,15.846703 -9.137157,19.871053 -2.147348,1.18311 -6.59348,6.44551 -8.546233,2.69936 z M 110.42418,93.539147 c -6.32171,-4.2924 -16.979199,-1.57977 -15.790724,-12.37006 7.700004,-2.92433 16.368764,1.36439 22.809544,5.74267 9.39417,4.17897 0.78873,13.531073 -5.77268,7.38958 l -1.24614,-0.76219 0,0 z M 76.005241,82.100757 c -1.913327,-2.37307 -4.538149,-4.5228 -3.330903,-7.87544 0.758713,-5.924063 -0.336769,-12.953914 3.93579,-17.600698 8.089434,1.541378 -1.129486,16.060568 7.312534,20.317468 3.997465,2.89206 6.061716,4.71053 0.202972,6.56376 -2.261449,5.50777 -5.729435,1.67025 -8.120393,-1.40509 z"
       style="fill:#2e376c" />
  </g>
</svg>
