<?xml version="1.0" encoding="UTF-8" standalone="no"?>
<!-- Created with Inkscape (http://www.inkscape.org/) -->

<svg
   xmlns:dc="http://purl.org/dc/elements/1.1/"
   xmlns:cc="http://creativecommons.org/ns#"
   xmlns:rdf="http://www.w3.org/1999/02/22-rdf-syntax-ns#"
   xmlns:svg="http://www.w3.org/2000/svg"
   xmlns="http://www.w3.org/2000/svg"
   xmlns:sodipodi="http://sodipodi.sourceforge.net/DTD/sodipodi-0.dtd"
   xmlns:inkscape="http://www.inkscape.org/namespaces/inkscape"
   id="svg4254"
   version="1.1"
   inkscape:version="0.91 r13725"
   width="147.67842"
   height="153.71713"
   viewBox="0 0 147.67842 153.71713"
   sodipodi:docname="logo_0.svg">
  <metadata
     id="metadata4260">
    <rdf:RDF>
      <cc:Work
         rdf:about="">
        <dc:format>image/svg+xml</dc:format>
        <dc:type
           rdf:resource="http://purl.org/dc/dcmitype/StillImage" />
        <dc:title></dc:title>
      </cc:Work>
    </rdf:RDF>
  </metadata>
  <defs
     id="defs4258" />
  <sodipodi:namedview
     pagecolor="#ffffff"
     bordercolor="#666666"
     borderopacity="1"
     objecttolerance="10"
     gridtolerance="10"
     guidetolerance="10"
     inkscape:pageopacity="0"
     inkscape:pageshadow="2"
     inkscape:window-width="1364"
     inkscape:window-height="766"
     id="namedview4256"
     showgrid="false"
     fit-margin-top="0"
     fit-margin-left="0"
     fit-margin-right="0"
     fit-margin-bottom="0"
     inkscape:zoom="2.4513035"
     inkscape:cx="43.098824"
     inkscape:cy="51.355339"
     inkscape:window-x="0"
     inkscape:window-y="0"
     inkscape:window-maximized="0"
     inkscape:current-layer="svg4254" />
  <g
     id="g4270"
     transform="translate(-9.8134778,0.00140805)">
    <path
       style="fill:#97bf0d;fill-opacity:1"
       d="M 13.104532,89.6875 C 12.79268,88.828125 12.388459,68.296559 12.206264,44.061796 L 11.875,-0.00140805 l 72.5,0 72.5,0 -0.33126,44.06320405 c -0.1822,24.234763 -0.58642,44.766329 -0.89828,45.625704 -0.82945,2.285739 -141.711471,2.285739 -142.540928,0 z M 88.75,78.75 c 3.003266,-3.003266 3.17309,-5.982765 0.55412,-9.721868 C 85.519579,63.624944 76.25,66.823662 76.25,73.532809 c 0,6.923216 7.615466,10.101725 12.5,5.217191 z m -17.5,-5 c 0,-2.420411 -0.833334,-2.5 -26.176229,-2.5 -16.102457,0 -26.473537,0.481055 -26.948771,1.25 -1.993179,3.225031 1.779429,3.75 26.948771,3.75 C 70.416666,76.25 71.25,76.17041 71.25,73.75 Z m 76.01289,0.3125 C 146.88144,72.07778 144.47681,71.843566 121.32283,71.535906 106.67632,71.34129 95.305675,71.694325 94.635509,72.364491 91.400997,75.599002 95.887836,76.25 121.41543,76.25 c 24.34386,0 26.23708,-0.160226 25.84746,-2.1875 z M 117.64235,59.947734 C 126.88834,54.515559 140,44.243044 140,42.431324 c 0,-2.368585 -2.68321,-1.035087 -12.37156,6.148387 -9.51368,7.053955 -13.69781,9.400625 -26.78299,15.02122 -3.316249,1.42446 -5.694656,3.131786 -5.285349,3.79406 1.178172,1.906323 12.877409,-2.039255 22.082249,-7.447257 z M 71.219126,64.942311 C 69.666019,62.040305 56.682149,52.164835 49.797126,48.64884 45.686664,46.549739 29.161729,40 27.976176,40 27.714279,40 27.5,40.84375 27.5,41.875 c 0,1.03125 0.612352,1.875 1.360783,1.875 3.243214,0 24.959017,11.660632 32.389217,17.391886 8.830271,6.811193 12.285355,8.128338 9.969126,3.800425 z M 77.036743,58.4375 C 75.680487,51.335031 66.648645,34.667093 59.425995,25.9375 53.475555,18.745552 50,15.83692 50,18.049046 c 0,0.301975 3.172665,4.9426 7.050367,10.3125 6.219583,8.612971 9.405183,14.547024 16.145787,30.075954 2.338587,5.387611 4.869384,5.387611 3.840589,0 z m 21.795886,-3.808281 c 3.139191,-3.882744 6.339731,-8.340838 7.112291,-9.906876 3.68599,-7.471712 10.30508,-23.791536 10.30508,-25.407888 0,-4.170472 -2.45142,-1.269144 -5.59602,6.623045 -3.75436,9.42254 -8.5468,17.752662 -15.790306,27.446366 -8.646049,11.570673 -5.242493,12.638619 3.968955,1.245353 z M 86.19473,55.3125 C 88.626909,46.62443 89.139604,33.938968 87.516286,22.61362 85.798856,10.631686 84.60149,7.3674609 82.663994,9.385449 81.92578,10.154331 81.89839,13.235501 82.59186,17.5 c 1.575385,9.687852 1.783051,20.205271 0.635541,32.1875 -1.064695,11.11749 0.564933,14.206686 2.967329,5.625 z"
       id="path4278"
       inkscape:connector-curvature="0"
       sodipodi:nodetypes="sscccssssssssssssssssssssssssssssssssssssssssssssssss" />
  </g>
  <text
     xml:space="preserve"
     style="font-style:normal;font-weight:normal;font-size:37.76031113px;line-height:100%;font-family:sans-serif;letter-spacing:0px;word-spacing:0px;fill:#000000;fill-opacity:1;stroke:none;stroke-width:1px;stroke-linecap:butt;stroke-linejoin:miter;stroke-opacity:1"
     x="-2.4199421"
     y="123.564"
     id="text4264"
     sodipodi:linespacing="100%"
     transform="scale(1.021406,0.97904262)"><tspan
       sodipodi:role="line"
       id="tspan4266"
       x="-2.4199421"
       y="123.564"
       style="font-style:normal;font-variant:normal;font-weight:normal;font-stretch:normal;font-size:33.04027557px;line-height:100%;font-family:Arial;-inkscape-font-specification:'Arial, Normal';text-align:start;writing-mode:lr-tb;text-anchor:start;fill:#333333;fill-opacity:1">ENERGIE</tspan><tspan
       sodipodi:role="line"
       x="-2.4199421"
       y="156.60428"
       id="tspan4268"
       style="font-style:normal;font-variant:normal;font-weight:normal;font-stretch:normal;font-size:33.04027557px;line-height:100%;font-family:Arial;-inkscape-font-specification:'Arial, Normal';text-align:start;writing-mode:lr-tb;text-anchor:start;fill:#333333;fill-opacity:1">BILDUNG</tspan></text>
</svg>
